<svg width="26.900000000000002" height="24.3" xmlns="http://www.w3.org/2000/svg">

 <g>
  <title>background</title>
  <rect fill="none" id="canvas_background" height="26.3" width="28.9" y="-1" x="-1"/>
 </g>
 <g>
  <title>Layer 1</title>
  <path stroke="null" id="svg_1" fill="#0096FA" d="m30.68109,-7.635797c0.596,0 1.092,0.199 1.489,0.596c0.397,0.396 0.596,0.893 0.596,1.488s-0.2,1.092 -0.596,1.488c-0.397,0.397 -0.893,0.596 -1.488,0.596c-0.596,0 -1.092,-0.199 -1.49,-0.596c-0.396,-0.396 -0.594,-0.893 -0.594,-1.488s0.198,-1.092 0.595,-1.488c0.397,-0.397 0.893,-0.596 1.488,-0.596zm-3.835,17.933a9.573,9.573 0 0 0 -3.317,-7.293c-2.1,-1.834 -5.04,-2.893 -8.459,-2.893c-8.908,0 -14.967,6.871 -14.967,6.871l1.707,2.708s0.945,0.08 0.445,-1.516c0.431,-0.815 1.277,-1.913 2.927,-3.18l0,18.04c-0.711,0.201 -1.652,0.578 -1.01,1.22l4.904,0c0.648,-0.648 -0.372,-1.038 -0.994,-1.22l0,-4.255s3.363,1.319 6.988,1.319c3.186,0 6.084,-0.947 8.24,-2.658c2.155,-1.7 3.544,-4.24 3.536,-7.143zm-3.58,-0.046c-0.008,2.348 -0.845,4.282 -2.336,5.765c-1.49,1.471 -3.658,2.401 -6.159,2.4c-2.79,0 -5.138,-0.539 -6.688,-1.302l0,-13.535c1.7,-1.208 4.46,-1.952 6.688,-1.947c2.707,0.002 4.833,1.024 6.27,2.575c1.435,1.561 2.219,3.634 2.226,6.044l-0.001,0zm7.918,-10.14c0.443,0 0.803,0.36 0.803,0.803l0,18.45c0,0.444 -0.36,0.803 -0.803,0.803l-0.999,0a0.803,0.803 0 0 1 -0.803,-0.803l0,-18.45c0,-0.443 0.36,-0.803 0.803,-0.803l1,0l-0.001,0zm26.91,0.803a0.804,0.804 0 0 0 -0.803,-0.803l-1,0a0.803,0.803 0 0 0 -0.802,0.803l0,18.45c0,0.443 0.359,0.803 0.803,0.803l0.999,0c0.443,0 0.803,-0.36 0.803,-0.803l0,-18.45zm22.682,-0.803c0.684,0 1.053,0.304 0.667,1.078c-0.308,0.62 -6.069,11.93 -8.362,16.434l-0.931,1.828c-0.235,0.443 -0.663,0.716 -1.125,0.716c-0.462,0 -0.89,-0.273 -1.125,-0.716c0,0 -8.908,-17.488 -9.295,-18.262c-0.385,-0.774 -0.016,-1.078 0.668,-1.078l0.93,0c0.73,0 0.931,0.095 1.26,0.754c0.327,0.656 7.562,14.99 7.562,14.99s7.234,-14.334 7.561,-14.99c0.329,-0.66 0.53,-0.754 1.26,-0.754l0.93,0zm-37.042,12.156l5.668,7.23c0.377,0.48 0.648,0.67 1.378,0.67l1.498,0c0.936,0 0.615,-0.423 0.35,-0.773l-0.006,-0.007c-0.665,-0.877 -7.231,-9.224 -7.231,-9.224s6.802,-8.394 7.468,-9.272l0.005,-0.008c0.266,-0.35 0.586,-0.772 -0.35,-0.772l-1.497,0c-0.73,0 -1.002,0.19 -1.379,0.671c-0.377,0.48 -5.904,7.276 -5.904,7.276s-5.532,-6.796 -5.909,-7.276c-0.376,-0.481 -0.648,-0.67 -1.377,-0.67l-1.498,0c-0.936,0 -0.616,0.421 -0.35,0.771l0.005,0.008c0.666,0.878 7.473,9.272 7.473,9.272s-6.764,8.347 -7.43,9.224l-0.006,0.008c-0.265,0.35 -0.585,0.772 0.35,0.772l1.498,0c0.73,0 1,-0.19 1.378,-0.67c0.377,-0.481 5.866,-7.23 5.866,-7.23zm51.586,-31.463c-37.44,11.759 -37.936,11.56 -38.532,11.56c-0.595,0 -1.09,0.199 -1.487,0.596c-0.398,0.396 -0.596,0.893 -0.596,1.488s0.199,1.092 0.596,1.488c0.396,0.397 0.892,0.596 1.487,0.596c0.596,0 1.092,-0.199 1.49,-0.596c0.396,-0.396 0.595,-0.893 0.595,-1.488s-0.199,-1.092 -0.595,-1.488l37.042,-12.156z" clip-rule="evenodd" fill-rule="evenodd"/>
 </g>
</svg>